# xmcd
#
# Track frame offsets: 
#        150
#        38660
#        83175
#        108610
#        126105
#        140480
#        167205
#        192255
#        251955
#
# Disc length: 3666 seconds
#
# Revision: 0
# Processed by: cddbd v1.5.2PL0 Copyright (c) Steve Scherf et al.
# Submitted via: ExactAudioCopy v0.95b4
#
DISCID=7f0e5009
DTITLE=Eric Clapton - 1994-04-24 - Bring Me No More Blues - CD2
DYEAR=1994
DGENRE=Blues
TTITLE0=Everyday I Have The Blues
TTITLE1=Double Trouble
TTITLE2=Before You Accuse Me
TTITLE3=Someday After A While
TTITLE4=Tore Down
TTITLE5=Have You Ever Loved A Woman
TTITLE6=Crossroads
TTITLE7=Five Long Years
TTITLE8=Ain't Nobody's Business
EXTD=
EXTT0=
EXTT1=
EXTT2=
EXTT3=
EXTT4=
EXTT5=
EXTT6=
EXTT7=
EXTT8=
PLAYORDER=
